<?xml version="1.0" encoding="UTF-8" standalone="no"?>
<svg
   xmlns:osb="http://www.openswatchbook.org/uri/2009/osb"
   xmlns:dc="http://purl.org/dc/elements/1.1/"
   xmlns:cc="http://creativecommons.org/ns#"
   xmlns:rdf="http://www.w3.org/1999/02/22-rdf-syntax-ns#"
   xmlns:svg="http://www.w3.org/2000/svg"
   xmlns="http://www.w3.org/2000/svg"
   xmlns:xlink="http://www.w3.org/1999/xlink"
   id="svg8"
   version="1.1"
   viewBox="0 0 26.458333 26.458334"
   height="100"
   width="100">
  <defs
     id="defs2">
    <linearGradient
       id="linearGradient3328">
      <stop
         id="stop3324"
         offset="0"
         style="stop-color:#000000;stop-opacity:1" />
      <stop
         id="stop3326"
         offset="1"
         style="stop-color:#000000;stop-opacity:0;" />
    </linearGradient>
    <linearGradient
       osb:paint="solid"
       id="linearGradient3316">
      <stop
         id="stop3314"
         offset="0"
         style="stop-color:#000000;stop-opacity:1;" />
    </linearGradient>
    <pattern
       patternTransform="matrix(0.58032322,0,0,9.4279291,0.24898638,0)"
       id="pattern3176"
       xlink:href="#Strips1_32" />
    <pattern
       patternUnits="userSpaceOnUse"
       width="33"
       height="1"
       patternTransform="translate(0,0) scale(10,10)"
       id="Strips1_32">
      <rect
         style="fill:black;stroke:none"
         x="0"
         y="-0.5"
         width="1"
         height="2"
         id="rect2123" />
    </pattern>
    <pattern
       patternTransform="matrix(37.795275,0,0,37.795275,-60.421093,-40.139405)"
       id="pattern3038"
       xlink:href="#Strips1_1.5" />
    <pattern
       patternUnits="userSpaceOnUse"
       width="2.5"
       height="1"
       patternTransform="translate(0,0) scale(10,10)"
       id="Strips1_1.5">
      <rect
         style="fill:black;stroke:none"
         x="0"
         y="-0.5"
         width="1"
         height="2"
         id="rect2075" />
    </pattern>
    <pattern
       id="pattern3035"
       patternTransform="translate(60.421093,40.139405)"
       height="34.330701"
       width="7.7762333"
       patternUnits="userSpaceOnUse">
      <rect
         style="fill:url(#pattern3038);fill-opacity:1;stroke:#000000;stroke-width:0.999999;stroke-linecap:round;stroke-miterlimit:4;stroke-dasharray:none"
         id="rect841"
         width="6.7762346"
         height="33.330704"
         x="0.49999934"
         y="0.49999934" />
    </pattern>
    <linearGradient
       gradientTransform="translate(0.18950154,1.5442785)"
       y2="-11.033935"
       x2="20.583681"
       y1="-11.186157"
       x1="20.584602"
       gradientUnits="userSpaceOnUse"
       id="linearGradient3332"
       xlink:href="#linearGradient3328" />
  </defs>
  <metadata
     id="metadata5">
    <rdf:RDF>
      <cc:Work
         rdf:about="">
        <dc:format>image/svg+xml</dc:format>
        <dc:type
           rdf:resource="http://purl.org/dc/dcmitype/StillImage" />
        <dc:title></dc:title>
      </cc:Work>
    </rdf:RDF>
  </metadata>
  <g
     transform="matrix(1.5473691,1.6341831,-1.6341831,1.5473691,-2.6181186,-27.681878)"
     id="pen">
    <path
       style="display:inline;opacity:1;mix-blend-mode:normal;fill:url(#linearGradient3332);fill-opacity:1;stroke:#000000;stroke-width:0.184224;stroke-linecap:round;stroke-miterlimit:4;stroke-dasharray:none;stroke-opacity:1"
       id="triangle"
       d="m 20.676265,-8.5488395 -1.06417,10e-8 -1.06417,-10e-8 0.532085,-0.9215985 0.532085,-0.921599 0.532085,0.9215989 z"
       transform="scale(1,-1)" />
    <rect
       style="fill:url(#pattern3176);fill-opacity:1;stroke:#000000;stroke-width:0.393959;stroke-linecap:round;stroke-miterlimit:4;stroke-dasharray:none;stroke-opacity:1"
       id="rectangle"
       width="2.0695455"
       height="5.9589238"
       x="18.582804"
       y="2.3056366" />
  </g>
  <path
     id="stroke"
     d="M 1.9530497,4.1986167 C 1.3911845,4.7364314 1.0383394,5.4872554 0.9828807,6.2630527 0.92742203,7.03885 1.1698782,7.8322298 1.6495285,8.4444983 2.1291787,9.0567667 2.8414538,9.482091 3.6079715,9.6139531 4.3744893,9.7458152 5.1879475,9.5829588 5.8446239,9.1661696 6.5246004,8.734592 7.0112864,8.0659733 7.5233989,7.4443882 8.0547364,6.7994684 8.6359002,6.1849253 9.329318,5.71865 c 0.693418,-0.4662754 1.509796,-0.7787874 2.345379,-0.7722892 0.722836,0.00562 1.447751,0.2590118 1.992147,0.7345708 0.544396,0.475559 0.896592,1.1751716 0.916824,1.8977465 0.01562,0.5578089 -0.161779,1.111601 -0.453476,1.5873194 -0.291696,0.4757183 -0.693851,0.8769485 -1.138591,1.2139965 -0.88948,0.674096 -1.940592,1.095194 -2.908334,1.65112 -1.0333104,0.593592 -1.9933457,1.36512 -2.616782,2.380703 -0.8123594,1.323341 -0.9803109,3.022752 -0.4427065,4.479508 0.5376045,1.456756 1.7692504,2.639657 3.2465175,3.118029"
     style="fill:none;stroke:#000000;stroke-width:1.23375;stroke-linecap:round;stroke-linejoin:miter;stroke-miterlimit:4.1;stroke-dasharray:none;stroke-opacity:1" />
</svg>
